<svg width="31" height="26" viewBox="0 0 31 26" fill="none" xmlns="http://www.w3.org/2000/svg">
<path d="M27.4835 4.68654C28.8302 3.85988 29.7219 2.73154 30.1585 1.29654C28.9286 1.96172 27.6088 2.44508 26.2402 2.73154C25.0685 1.47154 23.5852 0.831543 21.8069 0.831543C20.0685 0.831543 18.6002 1.44154 17.4019 2.62821C16.8232 3.19172 16.3656 3.86745 16.0572 4.61401C15.7489 5.36057 15.5962 6.16223 15.6085 6.96988C15.6085 7.48488 15.6735 7.94488 15.8035 8.33488C10.6769 8.15988 6.43354 6.03321 3.0902 1.93988C2.52354 2.94154 2.2402 3.96154 2.2402 5.01654C2.2402 7.18488 3.1552 8.90321 4.98187 10.1649C3.9402 10.0765 3.02187 9.81321 2.2402 9.38154C2.2402 10.9299 2.6952 12.2232 3.60687 13.3615C4.49246 14.4708 5.7405 15.2326 7.13187 15.5132C6.61187 15.6465 6.06353 15.7099 5.5002 15.7099C4.9802 15.7099 4.61187 15.6665 4.39353 15.5715C4.77687 16.8332 5.5002 17.8565 6.5452 18.6399C7.57827 19.4243 8.83491 19.8582 10.1319 19.8782C7.91187 21.6199 5.37354 22.4815 2.50187 22.4815C1.79854 22.4815 1.3002 22.4715 0.998535 22.4182C3.82687 24.2549 6.9752 25.1665 10.4585 25.1665C14.0235 25.1665 17.1735 24.2632 19.9152 22.4565C22.6569 20.6599 24.6802 18.4432 25.9802 15.8332C27.2658 13.3077 27.9352 10.5137 27.9335 7.67988V6.89988C29.1318 6.01642 30.1691 4.9334 31.0002 3.69821C29.8779 4.18465 28.6949 4.5171 27.4835 4.68654Z" fill="#1F1F1F"/>
</svg>
